#!OML:ASF E:\Steps\Project 1\Capture day 1\Session 2\Subject.ASF
:FULLY-SPECIFIED
:DEGREES
97
root 9.36271 16.4354 11.1716 -144.967 -4.50067 178.742
lowerback -21.1874 0.548333 -7.05105
upperback -0.605807 2.28133 -1.07613
thorax 11.0047 0.608756 3.48882
lowerneck 0.107414 0.0155252 -3.55652
upperneck 8.79603 -0.776721 6.78536
head 2.86688 -0.448832 2.83542
rclavicle -1.78906e-014 -1.92821e-014
rhumerus -31.4789 9.43851 -93.4802
rradius 56.8301
rwrist -12.8843
rhand -5.43391 -47.7272
rfingers 7.12502
rthumb 20.3765 -76.6782
lclavicle -1.78906e-014 -1.92821e-014
lhumerus -39.6806 -7.52794 80.7461
lradius 48.8689
lwrist 7.78676
lhand -25.0265 -17.9423
lfingers 7.12502
lthumb 1.48602 12.0323
rfemur -37.4012 4.08416 20.3231
rtibia 12.4178
rfoot -20.0403 -13.1278
rtoes -24.7803
lfemur -41.3187 -12.8718 -12.3635
ltibia 14.9626
lfoot -8.05526 1.34325
ltoes -40.6005
98
root 9.36571 16.4346 11.2064 -144.641 -4.9414 178.594
lowerback -20.6506 0.495668 -7.04785
upperback -0.633563 2.17094 -1.07405
thorax 10.6859 0.575515 3.44212
lowerneck 0.0632579 0.041536 -3.58256
upperneck 8.81359 -0.735893 6.76286
head 2.87857 -0.427768 2.83416
rclavicle 3.38928e-014 -2.66371e-014
rhumerus -31.365 10.107 -93.6595
rradius 57.211
rwrist -13.017
rhand -5.35487 -47.211
rfingers 7.12502
rthumb 20.4524 -76.1539
lclavicle 3.38928e-014 -2.66371e-014
lhumerus -40.2832 -7.56934 80.6092
lradius 49.6422
lwrist 8.33376
lhand -24.8689 -18.103
lfingers 7.12502
lthumb 1.63814 11.8705
rfemur -38.4441 3.53073 20.4373
rtibia 13.6422
rfoot -20.5197 -13.2119
rtoes -25.2716
lfemur -42.3317 -13.209 -12.1822
ltibia 15.8133
lfoot -8.26463 1.25699
ltoes -39.8653
99
root 9.37072 16.4303 11.2356 -144.442 -5.30038 178.582
lowerback -20.1899 0.54814 -6.94923
upperback -0.577928 2.19939 -1.11007
thorax 10.4941 0.608705 3.34303
lowerneck 0.161957 0.054967 -3.51882
upperneck 8.80226 -0.720931 6.74094
head 2.85442 -0.42118 2.81402
rclavicle 1.83379e-014 9.14409e-015
rhumerus -31.197 10.6332 -93.8973
rradius 57.6067
rwrist -13.0456
rhand -5.3292 -46.3342
rfingers 7.12502
rthumb 20.4771 -75.2744
lclavicle 1.83379e-014 9.14409e-015
lhumerus -40.8762 -7.85247 80.4126
lradius 50.4176
lwrist 8.85073
lhand -24.7881 -18.5388
lfingers 7.12502
lthumb 1.71618 11.434
rfemur -39.1945 3.03805 20.7009
rtibia 14.5046
rfoot -20.8517 -13.1185
rtoes -25.5149
lfemur -43.2216 -13.5326 -11.8287
ltibia 16.7582
lfoot -8.63397 1.37501
ltoes -39.491
100
root 9.37376 16.4231 11.2666 -144.199 -5.64255 178.562
lowerback -19.7151 0.657207 -6.78938
upperback -0.545462 2.29195 -1.23147
thorax 10.2672 0.677363 3.13145
lowerneck 0.209031 0.0342482 -3.36606
upperneck 8.79493 -0.752251 6.7139
head 2.84302 -0.433614 2.77497
rclavicle 7.35503e-015 -3.97569e-016
rhumerus -31.0385 11.1078 -94.217
rradius 58.122
rwrist -13.1125
rhand -5.60848 -45.5296
rfingers 7.12502
rthumb 20.2087 -74.4984
lclavicle 7.35503e-015 -3.97569e-016
lhumerus -41.5286 -8.35273 80.1543
lradius 51.2987
lwrist 9.57811
lhand -24.9163 -19.0512
lfingers 7.12502
lthumb 1.59241 10.9226
rfemur -40.1913 2.84903 20.7929
rtibia 15.7732
rfoot -21.2763 -13.3067
rtoes -25.6966
lfemur -44.2298 -13.8182 -11.486
ltibia 17.8174
lfoot -8.9688 1.46523
ltoes -39.9284
101
root 9.37928 16.4095 11.3025 -143.648 -5.93071 178.473
lowerback -19.5295 0.670666 -6.73535
upperback -0.519602 2.29538 -1.30035
thorax 10.1974 0.688041 3.02118
lowerneck 0.105218 0.0337583 -3.34936
upperneck 8.79893 -0.744702 6.69898
head 2.86288 -0.425532 2.76785
rclavicle -4.04527e-014 -1.19271e-014
rhumerus -30.6786 11.8605 -94.4541
rradius 58.6241
rwrist -13.2287
rhand -5.79758 -45.2611
rfingers 7.12502
rthumb 20.0269 -74.249
lclavicle -4.04527e-014 -1.19271e-014
lhumerus -42.1174 -8.55179 79.9024
lradius 52.2515
lwrist 10.4299
lhand -25.0605 -19.2601
lfingers 7.12502
lthumb 1.4531 10.7147
rfemur -41.7438 2.60302 20.818
rtibia 17.4597
rfoot -21.8322 -13.4654
rtoes -25.721
lfemur -45.7447 -13.8743 -11.2625
ltibia 19.1981
lfoot -9.28161 1.38022
ltoes -40.1201
102
root 9.3866 16.3913 11.3405 -142.988 -6.24322 178.459
lowerback -19.3824 0.659473 -6.59434
upperback -0.564175 2.23577 -1.31076
thorax 10.0766 0.672964 2.90927
lowerneck -0.0191333 0.0576715 -3.43506
upperneck 8.80104 -0.701036 6.70594
head 2.88524 -0.401332 2.78841
rclavicle -2.48481e-015 5.73494e-014
rhumerus -30.3478 12.8044 -94.666
rradius 59.131
rwrist -13.4916
rhand -5.71693 -45.5141
rfingers 7.12502
rthumb 20.1044 -74.4939
lclavicle -2.48481e-015 5.73494e-014
lhumerus -42.8015 -8.47206 79.65
lradius 53.1335
lwrist 10.7961
lhand -25.3602 -19.2518
lfingers 7.12502
lthumb 1.16369 10.7248
rfemur -43.4998 2.36891 20.9523
rtibia 19.28
rfoot -22.552 -13.6156
rtoes -25.3849
lfemur -47.4874 -13.7276 -11.0067
ltibia 20.7771
lfoot -9.73489 1.19965
ltoes -40.5689
103
root 9.39363 16.3726 11.3794 -142.436 -6.51448 178.454
lowerback -18.9666 0.714697 -6.42794
upperback -0.67504 2.23742 -1.38466
thorax 9.72904 0.698232 2.72179
lowerneck -0.12792 0.0673795 -3.43518
upperneck 8.80439 -0.680294 6.70407
head 2.90544 -0.386968 2.78931
rclavicle -1.97791e-014 2.95195e-014
rhumerus -30.2342 13.5344 -94.974
rradius 59.7487
rwrist -13.7243
rhand -5.85031 -45.433
rfingers 7.12502
rthumb 19.9762 -74.4263
lclavicle -1.97791e-014 2.95195e-014
lhumerus -43.5692 -8.49165 79.3651
lradius 53.9097
lwrist 10.9909
lhand -25.6156 -19.647
lfingers 7.12502
lthumb 0.916974 10.3308
rfemur -45.1858 2.23264 21.0509
rtibia 21.1381
rfoot -23.2512 -13.8002
rtoes -25.1374
lfemur -49.049 -13.5446 -10.8077
ltibia 22.2382
lfoot -9.95348 0.964513
ltoes -41.073
